name ./resultDataOpenSim/trcMotMarkerGrf/sub06/grf-01-05.mot
datacolumns 19
datarows 30
range 1.00400000 1.12000000
endheader

                time	     ground_force_vx	     ground_force_vy	     ground_force_vz	     ground_force_px	     ground_force_py	     ground_force_pz	   l_ground_force_vx	   l_ground_force_vy	   l_ground_force_vz	   l_ground_force_px	   l_ground_force_py	   l_ground_force_pz	     ground_torque_x	     ground_torque_y	     ground_torque_z	   l_ground_torque_x	   l_ground_torque_y	   l_ground_torque_z	
          1.00400000	          0.00000000	          0.00000000	          0.00000000	          0.00000000	          0.00000000	          0.00000000	         81.37849939	        657.91385887	         37.53576902	          0.01693198	          0.00000000	         -0.04674284	          0.00000000	          0.00000000	          0.00000000	          0.00000000	         -2.12211919	          0.00000000	
          1.00800000	          0.00000000	          0.00000000	          0.00000000	          0.00000000	          0.00000000	          0.00000000	         86.74087045	        674.36597444	         39.45845114	          0.01727143	          0.00000000	         -0.04674188	          0.00000000	          0.00000000	          0.00000000	          0.00000000	         -2.20124328	          0.00000000	
          1.01200000	          0.00000000	          0.00000000	          0.00000000	          0.00000000	          0.00000000	          0.00000000	         92.29449032	        690.37715022	         41.34387904	          0.01759228	          0.00000000	         -0.04672946	          0.00000000	          0.00000000	          0.00000000	          0.00000000	         -2.27945554	          0.00000000	
          1.01600000	          0.00000000	          0.00000000	          0.00000000	          0.00000000	          0.00000000	          0.00000000	         98.04827873	        705.68379509	         43.13639594	          0.01790730	          0.00000000	         -0.04669480	          0.00000000	          0.00000000	          0.00000000	          0.00000000	         -2.35485849	          0.00000000	
          1.02000000	          0.00000000	          0.00000000	          0.00000000	          0.00000000	          0.00000000	          0.00000000	        104.00581548	        720.04685563	         44.78459195	          0.01823713	          0.00000000	         -0.04664309	          0.00000000	          0.00000000	          0.00000000	          0.00000000	         -2.42583813	          0.00000000	
          1.02400000	          0.00000000	          0.00000000	          0.00000000	          0.00000000	          0.00000000	          0.00000000	        110.15999242	        733.23467529	         46.25800830	          0.01861793	          0.00000000	         -0.04657287	          0.00000000	          0.00000000	          0.00000000	          0.00000000	         -2.49160031	          0.00000000	
          1.02800000	          0.00000000	          0.00000000	          0.00000000	          0.00000000	          0.00000000	          0.00000000	        116.50165746	        744.98661879	         47.54727817	          0.01910178	          0.00000000	         -0.04647025	          0.00000000	          0.00000000	          0.00000000	          0.00000000	         -2.55250799	          0.00000000	
          1.03200000	          0.00000000	          0.00000000	          0.00000000	          0.00000000	          0.00000000	          0.00000000	        123.01802380	        755.04979785	         48.65174640	          0.01973032	          0.00000000	         -0.04631576	          0.00000000	          0.00000000	          0.00000000	          0.00000000	         -2.61006603	          0.00000000	
          1.03600000	          0.00000000	          0.00000000	          0.00000000	          0.00000000	          0.00000000	          0.00000000	        129.67788115	        763.25494059	         49.57206547	          0.02050056	          0.00000000	         -0.04610122	          0.00000000	          0.00000000	          0.00000000	          0.00000000	         -2.66648075	          0.00000000	
          1.04000000	          0.00000000	          0.00000000	          0.00000000	          0.00000000	          0.00000000	          0.00000000	        136.42252814	        769.52707653	         50.29935433	          0.02136128	          0.00000000	         -0.04584024	          0.00000000	          0.00000000	          0.00000000	          0.00000000	         -2.72387455	          0.00000000	
          1.04400000	          0.00000000	          0.00000000	          0.00000000	          0.00000000	          0.00000000	          0.00000000	        143.16735272	        773.84251967	         50.80439472	          0.02224768	          0.00000000	         -0.04555921	          0.00000000	          0.00000000	          0.00000000	          0.00000000	         -2.78336613	          0.00000000	
          1.04800000	          0.00000000	          0.00000000	          0.00000000	          0.00000000	          0.00000000	          0.00000000	        149.81094170	        776.20095540	         51.04582588	          0.02311332	          0.00000000	         -0.04528262	          0.00000000	          0.00000000	          0.00000000	          0.00000000	         -2.84431496	          0.00000000	
          1.05200000	          0.00000000	          0.00000000	          0.00000000	          0.00000000	          0.00000000	          0.00000000	        156.25299272	        776.61065075	         50.99146690	          0.02393828	          0.00000000	         -0.04502626	          0.00000000	          0.00000000	          0.00000000	          0.00000000	         -2.90404894	          0.00000000	
          1.05600000	          0.00000000	          0.00000000	          0.00000000	          0.00000000	          0.00000000	          0.00000000	        162.41788423	        775.05940289	         50.63171878	          0.02472115	          0.00000000	         -0.04479727	          0.00000000	          0.00000000	          0.00000000	          0.00000000	         -2.95825882	          0.00000000	
          1.06000000	          0.00000000	          0.00000000	          0.00000000	          0.00000000	          0.00000000	          0.00000000	        168.27070967	        771.49919722	         49.98082164	          0.02547873	          0.00000000	         -0.04459358	          0.00000000	          0.00000000	          0.00000000	          0.00000000	         -3.00195473	          0.00000000	
          1.06400000	          0.00000000	          0.00000000	          0.00000000	          0.00000000	          0.00000000	          0.00000000	        173.80501571	        765.88667808	         49.07977722	          0.02625210	          0.00000000	         -0.04439951	          0.00000000	          0.00000000	          0.00000000	          0.00000000	         -3.03059900	          0.00000000	
          1.06800000	          0.00000000	          0.00000000	          0.00000000	          0.00000000	          0.00000000	          0.00000000	        179.00742823	        758.23995900	         48.00350743	          0.02709766	          0.00000000	         -0.04418467	          0.00000000	          0.00000000	          0.00000000	          0.00000000	         -3.04094885	          0.00000000	
          1.07200000	          0.00000000	          0.00000000	          0.00000000	          0.00000000	          0.00000000	          0.00000000	        183.83772188	        748.63958361	         46.85236158	          0.02805529	          0.00000000	         -0.04391893	          0.00000000	          0.00000000	          0.00000000	          0.00000000	         -3.03134794	          0.00000000	
          1.07600000	          0.00000000	          0.00000000	          0.00000000	          0.00000000	          0.00000000	          0.00000000	        188.24149232	        737.19134313	         45.71864824	          0.02911295	          0.00000000	         -0.04359314	          0.00000000	          0.00000000	          0.00000000	          0.00000000	         -3.00156113	          0.00000000	
          1.08000000	          0.00000000	          0.00000000	          0.00000000	          0.00000000	          0.00000000	          0.00000000	        192.17268563	        723.98444015	         44.64753452	          0.03022719	          0.00000000	         -0.04321346	          0.00000000	          0.00000000	          0.00000000	          0.00000000	         -2.95243839	          0.00000000	
          1.08400000	          0.00000000	          0.00000000	          0.00000000	          0.00000000	          0.00000000	          0.00000000	        195.60330887	        709.02112155	         43.61580014	          0.03137473	          0.00000000	         -0.04278774	          0.00000000	          0.00000000	          0.00000000	          0.00000000	         -2.88557472	          0.00000000	
          1.08800000	          0.00000000	          0.00000000	          0.00000000	          0.00000000	          0.00000000	          0.00000000	        198.51662287	        692.16724725	         42.54254959	          0.03254933	          0.00000000	         -0.04233008	          0.00000000	          0.00000000	          0.00000000	          0.00000000	         -2.80294459	          0.00000000	
          1.09200000	          0.00000000	          0.00000000	          0.00000000	          0.00000000	          0.00000000	          0.00000000	        200.88001938	        673.18812282	         41.33067308	          0.03374273	          0.00000000	         -0.04185202	          0.00000000	          0.00000000	          0.00000000	          0.00000000	         -2.70650340	          0.00000000	
          1.09600000	          0.00000000	          0.00000000	          0.00000000	          0.00000000	          0.00000000	          0.00000000	        202.59837670	        651.81237189	         39.90896214	          0.03493868	          0.00000000	         -0.04137502	          0.00000000	          0.00000000	          0.00000000	          0.00000000	         -2.59784992	          0.00000000	
          1.10000000	          0.00000000	          0.00000000	          0.00000000	          0.00000000	          0.00000000	          0.00000000	        203.47949998	        627.77413310	         38.24047408	          0.03614177	          0.00000000	         -0.04091482	          0.00000000	          0.00000000	          0.00000000	          0.00000000	         -2.47800332	          0.00000000	
          1.10400000	          0.00000000	          0.00000000	          0.00000000	          0.00000000	          0.00000000	          0.00000000	        203.23490814	        600.82232407	         36.29624714	          0.03734085	          0.00000000	         -0.04047786	          0.00000000	          0.00000000	          0.00000000	          0.00000000	         -2.34725465	          0.00000000	
          1.10800000	          1.29775146	         20.02439382	          2.41453728	          0.63481691	          0.00000000	          0.09552990	        201.49751401	        570.68184921	         34.02976815	          0.03852236	          0.00000000	         -0.04007507	          0.00000000	          0.53441126	          0.00000000	          0.00000000	         -2.20513202	          0.00000000	
          1.11200000	         -3.43316395	        147.49935368	          9.10857422	          0.63999268	          0.00000000	          0.09386319	        197.85316707	        537.05971990	         31.38939897	          0.03969757	          0.00000000	         -0.03972215	          0.00000000	          0.23019471	          0.00000000	          0.00000000	         -2.05068812	          0.00000000	
          1.11600000	         -9.59530174	        262.01331446	         15.64136814	          0.64488696	          0.00000000	          0.09250231	        191.90494984	        499.78167765	         28.35905785	          0.04090948	          0.00000000	         -0.03943571	          0.00000000	         -0.11680014	          0.00000000	          0.00000000	         -1.88324392	          0.00000000	
          1.12000000	        -18.68621640	        354.06016248	         21.44393996	          0.64923648	          0.00000000	          0.09190594	        183.35699564	        458.94419292	         24.98544541	          0.04226774	          0.00000000	         -0.03920562	          0.00000000	         -0.51809927	          0.00000000	          0.00000000	         -1.70338805	          0.00000000	
